#define USER_width 19
#define USER_height 7
static unsigned char USER_bits[] = {
   0xc9, 0xbc, 0x03, 0x29, 0x85, 0x04, 0x29, 0x84, 0x04, 0xc9, 0x9c, 0x03,
   0x09, 0x85, 0x04, 0x29, 0x85, 0x04, 0xc6, 0xbc, 0x04 };
