#define g_width 4
#define g_height 9
static unsigned char g_bits[] = {
   0x00, 0x00, 0x0e, 0x09, 0x09, 0x09, 0x0e, 0x08, 0x06 };
