#define f_width 4
#define f_height 7
static unsigned char f_bits[] = {
   0x04, 0x0a, 0x02, 0x07, 0x02, 0x02, 0x02 };
