#define C_width 4
#define C_height 7
static unsigned char C_bits[] = {
   0x06, 0x09, 0x01, 0x01, 0x01, 0x09, 0x06 };
