#define _RAD_width 14
#define _RAD_height 7
static unsigned char _RAD_bits[] = {
   0xc7, 0x1c, 0x29, 0x25, 0x29, 0x25, 0xe7, 0x25, 0x29, 0x25, 0x29, 0x25,
   0x29, 0x1d };
