#define DMY_width 19
#define DMY_height 7
static unsigned char DMY_bits[] = {
   0x07, 0x51, 0x04, 0x09, 0x51, 0x04, 0x09, 0x9b, 0x02, 0x09, 0x15, 0x01,
   0x09, 0x11, 0x01, 0x69, 0x11, 0x01, 0x67, 0x11, 0x01 };
