#define PRGM_width 20
#define PRGM_height 7
static unsigned char PRGM_bits[] = {
   0xe7, 0x98, 0x08, 0x29, 0xa5, 0x08, 0x29, 0x85, 0x0d, 0xe7, 0x84, 0x0a,
   0x21, 0xb5, 0x08, 0x21, 0xa5, 0x08, 0x21, 0x99, 0x08 };
