#define breakdown_I_width 5
#define breakdown_I_height 7
static unsigned char breakdown_I_bits[] = {
   0x00, 0x00, 0x00, 0x00, 0x0e, 0x06, 0x01 };
