#define breakdown_H_width 5
#define breakdown_H_height 7
static unsigned char breakdown_H_bits[] = {
   0x0c, 0x1c, 0x1c, 0x00, 0x00, 0x00, 0x00 };
